<svg width="105" height="28" viewBox="0 0 105 28" fill="none" xmlns="http://www.w3.org/2000/svg">
<g clip-path="url(#clip0_666_14825)">
<path d="M28.7128 0C28.7128 0 22.2678 1.79742e-06 21.1435 6.59655C20.0191 13.1931 19.3896 16.7505 19.3896 16.7505C20.2959 16.7405 21.1704 16.4042 21.8623 15.7995C22.5543 15.1948 23.0203 14.3597 23.18 13.4381L24.3591 6.60597C24.5238 5.68799 24.9916 4.85743 25.6828 4.25596C26.374 3.65448 27.2458 3.31934 28.1495 3.3077H37.3404C38.2447 3.2983 39.1177 2.96396 39.8093 2.3621C40.501 1.76024 40.9682 0.928404 41.1308 0.00942386L28.7128 0Z" fill="black"/>
<path d="M26.7881 9.91129H33.3107C34.2157 9.89678 35.0879 9.55883 35.779 8.95493C36.47 8.35103 36.9372 7.51847 37.1011 6.59888H30.5785C29.6722 6.6089 28.7977 6.94524 28.1058 7.54992C27.4139 8.1546 26.9478 8.98971 26.7881 9.91129Z" fill="black"/>
<path d="M87.6811 11.5605C87.7599 11.1006 87.9922 10.6839 88.3376 10.3826C88.683 10.0814 89.1196 9.91461 89.5717 9.91132H99.3213C99.6214 9.90998 99.9201 9.87041 100.211 9.79352C101.387 9.60493 102.475 9.03538 103.318 8.16697C104.16 7.29856 104.714 6.17615 104.9 4.96155C105.744 1.34806e-06 100.92 0 100.92 0H89.672C88.7676 0.0122911 87.8956 0.349706 87.2059 0.954227C86.5162 1.55875 86.052 2.3926 85.893 3.31241H100.325C100.495 3.30159 100.665 3.32568 100.827 3.38329C100.988 3.4409 101.136 3.5309 101.263 3.64808C101.39 3.76526 101.494 3.90731 101.568 4.06603C101.642 4.22475 101.684 4.39699 101.693 4.57282C101.7 4.70342 101.689 4.83436 101.659 4.96155C101.581 5.42116 101.349 5.83784 101.004 6.13914C100.659 6.44045 100.222 6.6073 99.7706 6.61069H90.0187C89.7235 6.62446 89.4298 6.66307 89.1406 6.72612C87.9562 6.91887 86.8624 7.49761 86.0189 8.3779C85.1753 9.25818 84.6262 10.3939 84.4517 11.6194C83.5965 16.5785 88.4223 16.5785 88.4223 16.5785H99.668C100.573 16.565 101.445 16.2277 102.137 15.6242C102.828 15.0206 103.295 14.188 103.458 13.2685H88.9947C88.7933 13.2794 88.5923 13.2416 88.4076 13.1581C88.2229 13.0747 88.0597 12.9478 87.9308 12.7877C87.8019 12.6275 87.711 12.4385 87.6652 12.2357C87.6195 12.0329 87.6202 11.8218 87.6674 11.6194" fill="black"/>
<path d="M55.8751 0H47.8336C41.4 0 40.2642 6.61069 40.2642 6.61069L39.6895 9.9231C38.5652 16.5338 44.9988 16.5338 44.9988 16.5338H53.0403C59.4854 16.5338 60.6097 9.9231 60.6097 9.9231C60.71 9.29407 60.8902 8.25983 61.173 6.61069C62.3087 1.34806e-06 55.8751 0 55.8751 0ZM57.955 6.61069L57.3826 9.90896C57.2232 10.8274 56.7585 11.6595 56.0686 12.2617C55.3786 12.8638 54.5068 13.1983 53.6036 13.2072H45.5598C45.1561 13.2332 44.7522 13.1604 44.3809 12.9948C44.0096 12.8291 43.6813 12.5753 43.4229 12.2539C43.1644 11.9325 42.983 11.5526 42.8935 11.1451C42.8039 10.7377 42.8087 10.3141 42.9075 9.90896L43.4799 6.59655C43.6393 5.67814 44.104 4.84602 44.794 4.24385C45.4839 3.64168 46.3557 3.30724 47.2589 3.29828H55.346C55.7474 3.27908 56.1475 3.35735 56.5143 3.52682C56.8811 3.69629 57.2043 3.95223 57.458 4.2741C57.7117 4.59597 57.8889 4.9748 57.9752 5.38018C58.0615 5.78556 58.0546 6.2062 57.955 6.60833V6.61069Z" fill="black"/>
<path d="M78.3921 0H70.3506C63.9169 0 62.7812 6.59655 62.7812 6.59655L62.2179 9.90896C61.0776 16.5196 67.5158 16.5196 67.5158 16.5196H75.5573C82.0023 16.5196 83.1267 9.90896 83.1267 9.90896C83.227 9.29171 83.4642 8.24569 83.69 6.61069C84.8166 1.34806e-06 78.3921 0 78.3921 0ZM80.472 6.61069L79.9429 9.90896C79.7791 10.8273 79.3115 11.6584 78.6201 12.26C77.9287 12.8617 77.0565 13.1965 76.1525 13.2072H68.111C67.7078 13.2327 67.3044 13.1595 66.9338 12.9934C66.5632 12.8274 66.2357 12.5734 65.9781 12.2519C65.7205 11.9305 65.54 11.5507 65.4513 11.1436C65.3626 10.7364 65.3683 10.3134 65.4678 9.90896L65.9969 6.59655C66.1615 5.67857 66.6294 4.84801 67.3206 4.24653C68.0118 3.64506 68.8836 3.30992 69.7873 3.29828H77.8402C78.1079 3.28129 78.3766 3.30832 78.6361 3.37838C78.9633 3.46459 79.2707 3.61671 79.5408 3.82601C79.8109 4.03531 80.0383 4.29767 80.2099 4.59801C80.3816 4.89836 80.4941 5.23077 80.5411 5.57617C80.588 5.92156 80.5684 6.27313 80.4834 6.61069H80.472Z" fill="black"/>
<path d="M2.82115 26.3624L1.7082 24.553H1.25207V26.3624H-0.00683594V20.7435H2.11187C3.45288 20.7435 4.05497 21.5681 4.05497 22.6824C4.05497 23.5376 3.67866 24.096 3.04693 24.3669V24.3858L4.32182 26.3624H2.82115ZM1.25892 23.3939H1.8496C2.39923 23.3939 2.73448 23.1112 2.73448 22.6518C2.73448 22.2301 2.4403 21.9144 1.87243 21.9144H1.25892V23.3939Z" fill="black"/>
<path d="M4.57715 24.4325C4.57715 23.2545 5.39589 22.4205 6.59778 22.4205C7.79967 22.4205 8.61613 23.2427 8.61613 24.4325C8.61613 25.6222 7.78827 26.4397 6.59778 26.4397C5.40729 26.4397 4.57715 25.6057 4.57715 24.4325ZM7.40967 24.4325C7.42005 24.3157 7.40675 24.198 7.37061 24.0868C7.33447 23.9757 7.27629 23.8735 7.19978 23.7869C7.12328 23.7003 7.03011 23.6311 6.92626 23.5837C6.82241 23.5364 6.71015 23.5119 6.59664 23.5119C6.48312 23.5119 6.37084 23.5364 6.26699 23.5837C6.16314 23.6311 6.07 23.7003 5.99349 23.7869C5.91698 23.8735 5.85881 23.9757 5.82267 24.0868C5.78653 24.198 5.7732 24.3157 5.78358 24.4325C5.7732 24.5492 5.78653 24.667 5.82267 24.7781C5.85881 24.8893 5.91698 24.9914 5.99349 25.0781C6.07 25.1647 6.16314 25.2339 6.26699 25.2812C6.37084 25.3286 6.48312 25.353 6.59664 25.353C6.71015 25.353 6.82241 25.3286 6.92626 25.2812C7.03011 25.2339 7.12328 25.1647 7.19978 25.0781C7.27629 24.9914 7.33447 24.8893 7.37061 24.7781C7.40675 24.667 7.42005 24.5492 7.40967 24.4325V24.4325Z" fill="black"/>
<path d="M10.9879 26.4402C10.7301 26.4504 10.473 26.4055 10.2328 26.3083C9.99252 26.211 9.77432 26.0635 9.59187 25.8751C9.40941 25.6866 9.26665 25.4612 9.17252 25.213C9.07838 24.9649 9.03491 24.6993 9.04485 24.4329C9.04485 23.2385 9.875 22.421 11.0472 22.421C11.3562 22.4144 11.6626 22.4806 11.9431 22.6145C12.2236 22.7484 12.471 22.9464 12.6665 23.1937L11.866 23.9005C11.7739 23.7805 11.6562 23.6843 11.522 23.6193C11.3879 23.5543 11.241 23.5223 11.0928 23.5259C10.979 23.5213 10.8655 23.5416 10.7597 23.5853C10.6539 23.629 10.5582 23.6952 10.4788 23.7797C10.3995 23.8641 10.3382 23.9649 10.299 24.0754C10.2598 24.1859 10.2435 24.3037 10.2513 24.4211C10.2436 24.5404 10.2602 24.6601 10.2999 24.7724C10.3396 24.8846 10.4016 24.9871 10.4819 25.0732C10.5622 25.1593 10.6591 25.2271 10.7663 25.2722C10.8735 25.3173 10.9886 25.3388 11.1043 25.3352C11.2483 25.3375 11.3911 25.3073 11.5227 25.2467C11.6542 25.186 11.7714 25.0965 11.866 24.9842L12.6847 25.7216C12.4697 25.9619 12.2064 26.1507 11.9133 26.2748C11.6202 26.3989 11.3044 26.4554 10.9879 26.4402V26.4402Z" fill="black"/>
<path d="M14.776 24.9472L14.3791 25.4184V26.3607H13.1841V20.5416H14.3791V23.7763H14.3951L15.4784 22.4947H16.8673L15.581 24.0048L16.8969 26.3607H15.5696L14.7942 24.9472H14.776Z" fill="black"/>
<path d="M16.9429 23.3463H19.2874V24.4866H16.9429V23.3463Z" fill="black"/>
<path d="M19.6772 25.8652L20.2451 25.036C20.3728 25.1725 20.5254 25.2816 20.6941 25.3568C20.8628 25.4321 21.0443 25.4719 21.2281 25.4742C21.4561 25.4742 21.5633 25.3988 21.5633 25.2598C21.5633 25.1585 21.447 25.0784 20.9886 24.9299C20.3637 24.7297 19.8186 24.4046 19.8186 23.6413C19.8186 22.878 20.4344 22.4209 21.2235 22.4209C21.734 22.4113 22.2319 22.5845 22.6329 22.9109L22.0651 23.7944C21.8429 23.5549 21.5417 23.4103 21.2212 23.3892C21.1163 23.3892 20.9544 23.4316 20.9544 23.5871C20.9544 23.6837 21.0935 23.7803 21.4447 23.9122C22.2703 24.2208 22.7196 24.4211 22.7219 25.1891C22.7219 25.9077 22.2361 26.4401 21.2167 26.4401C20.6523 26.4519 20.1038 26.247 19.6772 25.8652V25.8652Z" fill="black"/>
<path d="M23.0913 24.4325C23.0913 23.2545 23.9078 22.4205 25.1119 22.4205C26.3161 22.4205 27.1303 23.2427 27.1303 24.4325C27.1303 25.6222 26.3024 26.4397 25.1119 26.4397C23.9215 26.4397 23.0913 25.6057 23.0913 24.4325ZM25.1119 25.3395C25.2238 25.3378 25.3341 25.3127 25.4362 25.2656C25.5384 25.2186 25.6302 25.1506 25.7061 25.0658C25.782 24.9809 25.8405 24.8811 25.8779 24.7722C25.9153 24.6633 25.931 24.5478 25.9239 24.4325C25.9342 24.3157 25.9209 24.198 25.8848 24.0868C25.8487 23.9757 25.7905 23.8735 25.7139 23.7869C25.6374 23.7003 25.5443 23.6311 25.4405 23.5837C25.3366 23.5364 25.2243 23.5119 25.1108 23.5119C24.9973 23.5119 24.885 23.5364 24.7812 23.5837C24.6773 23.6311 24.5842 23.7003 24.5077 23.7869C24.4311 23.8735 24.373 23.9757 24.3368 24.0868C24.3007 24.198 24.2874 24.3157 24.2978 24.4325C24.2906 24.548 24.3063 24.6637 24.3439 24.7728C24.3815 24.8818 24.4401 24.9818 24.5163 25.0666C24.5925 25.1515 24.6846 25.2194 24.787 25.2663C24.8894 25.3132 24.9999 25.3381 25.1119 25.3395V25.3395Z" fill="black"/>
<path d="M27.7803 20.5416H28.9708V26.3631H27.7803V20.5416Z" fill="black"/>
<path d="M29.6936 21.3113C29.6835 21.1561 29.7189 21.0014 29.7951 20.8672C29.8712 20.7331 29.9848 20.6257 30.1208 20.5591C30.2569 20.4925 30.4091 20.4697 30.5579 20.4936C30.7067 20.5176 30.845 20.5873 30.9549 20.6936C31.0649 20.7999 31.1413 20.9379 31.1743 21.0896C31.2073 21.2414 31.1953 21.3999 31.14 21.5445C31.0846 21.6891 30.9884 21.8132 30.8638 21.9006C30.7393 21.988 30.5922 22.0347 30.4416 22.0346C30.3459 22.0407 30.2499 22.0265 30.1597 21.9929C30.0694 21.9594 29.9867 21.9072 29.9167 21.8395C29.8467 21.7717 29.7908 21.69 29.7524 21.5992C29.714 21.5083 29.694 21.4104 29.6936 21.3113V21.3113ZM29.8441 22.4893H31.0368V26.3577H29.8532L29.8441 22.4893Z" fill="black"/>
<path d="M35.6646 20.5416V26.3631H34.5243V25.9461H34.5083C34.3808 26.1094 34.2175 26.239 34.0319 26.3243C33.8463 26.4095 33.6438 26.4478 33.441 26.4361C32.4079 26.4361 31.6758 25.6304 31.6758 24.4336C31.6758 23.2368 32.4147 22.4216 33.384 22.4216C33.5842 22.4171 33.7829 22.458 33.9662 22.5414C34.1494 22.6249 34.3127 22.7488 34.4445 22.9046H34.4604V20.5487L35.6646 20.5416ZM34.5243 24.4359C34.5327 24.3188 34.5178 24.2011 34.4802 24.0902C34.4427 23.9793 34.3835 23.8776 34.3062 23.7914C34.229 23.7052 34.1354 23.6364 34.0313 23.5892C33.9271 23.542 33.8147 23.5175 33.701 23.5171C33.5885 23.5186 33.4775 23.5441 33.375 23.592C33.2725 23.6399 33.1807 23.7091 33.1053 23.7954C33.0299 23.8817 32.9726 23.9831 32.937 24.0933C32.9013 24.2036 32.8881 24.3202 32.8982 24.4359C32.8982 24.9825 33.2312 25.3477 33.6987 25.3477C33.8118 25.348 33.9238 25.3242 34.0275 25.2776C34.1312 25.231 34.2245 25.1628 34.3015 25.0771C34.3784 24.9915 34.4373 24.8903 34.4744 24.7799C34.5116 24.6695 34.5263 24.5524 34.5174 24.4359H34.5243Z" fill="black"/>
<path d="M45.6446 20.7435L43.9433 26.3624H42.7733L41.8611 22.6683H41.8497L40.9055 26.3624H39.7332L38.0342 20.7435H39.4026L40.3148 24.1926L41.1564 20.7435H42.5065L43.3366 24.1926L44.2489 20.7435H45.6446Z" fill="black"/>
<path d="M45.4185 24.4325C45.4185 23.2545 46.2372 22.4205 47.4414 22.4205C48.6455 22.4205 49.4597 23.2427 49.4597 24.4325C49.4597 25.6222 48.6296 26.4397 47.4414 26.4397C46.2532 26.4397 45.4185 25.6057 45.4185 24.4325ZM47.4414 25.3395C47.553 25.3375 47.6631 25.3121 47.765 25.2649C47.8668 25.2178 47.9583 25.1497 48.034 25.0649C48.1097 24.9801 48.168 24.8804 48.2053 24.7717C48.2426 24.663 48.2581 24.5476 48.251 24.4325C48.2614 24.3157 48.2481 24.198 48.2119 24.0868C48.1758 23.9757 48.1176 23.8735 48.0411 23.7869C47.9646 23.7003 47.8714 23.6311 47.7676 23.5837C47.6637 23.5364 47.5515 23.5119 47.4379 23.5119C47.3244 23.5119 47.2122 23.5364 47.1083 23.5837C47.0045 23.6311 46.9113 23.7003 46.8348 23.7869C46.7583 23.8735 46.7001 23.9757 46.664 24.0868C46.6278 24.198 46.6145 24.3157 46.6249 24.4325C46.6181 24.5481 46.6341 24.6639 46.6719 24.7729C46.7098 24.882 46.7686 24.9819 46.845 25.0667C46.9213 25.1515 47.0136 25.2195 47.1161 25.2663C47.2186 25.3132 47.3293 25.3381 47.4414 25.3395V25.3395Z" fill="black"/>
<path d="M52.3607 22.4205H52.4041V23.754C52.2946 23.754 52.176 23.754 52.1235 23.754C52.0089 23.7429 51.8934 23.7579 51.785 23.7979C51.6766 23.8379 51.578 23.9019 51.4961 23.9854C51.4142 24.0689 51.3509 24.1699 51.3108 24.2813C51.2706 24.3927 51.2546 24.5119 51.2637 24.6304V26.3667H50.0664V22.4936H51.2637V23.0119H51.2774C51.4013 22.8328 51.564 22.6861 51.7524 22.5834C51.9409 22.4808 52.15 22.425 52.363 22.4205H52.3607Z" fill="black"/>
<path d="M56.6213 20.5416V26.3631H55.481V25.9461H55.4673C55.3394 26.1095 55.1756 26.2391 54.9897 26.3243C54.8037 26.4095 54.6008 26.4478 54.3977 26.4361C53.3668 26.4361 52.6348 25.6304 52.6348 24.4336C52.6348 23.2368 53.3737 22.4216 54.343 22.4216C54.5432 22.4171 54.7419 22.458 54.9251 22.5414C55.1084 22.6249 55.2717 22.7488 55.4034 22.9046H55.4194V20.5487L56.6213 20.5416ZM55.481 24.4359C55.4894 24.3188 55.4744 24.2011 55.4369 24.0902C55.3994 23.9793 55.3402 23.8776 55.2629 23.7914C55.1857 23.7052 55.0921 23.6364 54.988 23.5892C54.8838 23.542 54.7714 23.5175 54.6577 23.5171C54.5452 23.5186 54.4342 23.5441 54.3317 23.592C54.2292 23.6399 54.1374 23.7091 54.062 23.7954C53.9866 23.8817 53.9293 23.9831 53.8937 24.0933C53.858 24.2036 53.8448 24.3202 53.8549 24.4359C53.8549 24.9825 54.1856 25.3477 54.6531 25.3477C54.7664 25.3484 54.8786 25.3248 54.9826 25.2783C55.0866 25.2319 55.1802 25.1637 55.2574 25.078C55.3345 24.9923 55.3936 24.891 55.431 24.7805C55.4683 24.6699 55.483 24.5526 55.4741 24.4359H55.481Z" fill="black"/>
<path d="M57.4922 20.7435H59.5607C60.9017 20.7435 61.497 21.5681 61.497 22.6824C61.497 23.9334 60.6896 24.553 59.4627 24.553H58.7534V26.3624H57.4922V20.7435ZM59.2916 23.3892C59.8526 23.3892 60.1697 23.1112 60.1697 22.6518C60.1697 22.2301 59.8869 21.9144 59.3099 21.9144H58.7534V23.3892H59.2916Z" fill="black"/>
<path d="M64.3659 22.4205H64.407V23.754C64.2975 23.754 64.1789 23.754 64.1265 23.754C64.0119 23.7429 63.8963 23.7579 63.7879 23.7979C63.6795 23.8379 63.5809 23.9019 63.499 23.9854C63.4171 24.0689 63.3538 24.1699 63.3137 24.2813C63.2736 24.3927 63.2575 24.5119 63.2667 24.6304V26.3667H62.0693V22.4936H63.2667V23.0119H63.2803C63.4042 22.8328 63.5669 22.6861 63.7554 22.5834C63.9438 22.4808 64.1529 22.425 64.3659 22.4205V22.4205Z" fill="black"/>
<path d="M68.3959 24.3932C68.3927 24.5162 68.3828 24.6389 68.3663 24.7607H65.8165C65.8628 24.9633 65.9776 25.1421 66.1403 25.2648C66.303 25.3875 66.5029 25.446 66.7037 25.4298C66.8803 25.4271 67.054 25.3834 67.212 25.3018C67.3699 25.2202 67.508 25.1029 67.616 24.9586L68.2523 25.696C68.0456 25.9413 67.7878 26.1351 67.4983 26.2628C67.2088 26.3906 66.895 26.4489 66.5806 26.4334C66.0887 26.4047 65.6258 26.1841 65.2855 25.8162C64.9451 25.4483 64.7527 24.9606 64.7472 24.4518C64.7417 23.9429 64.9235 23.4509 65.2558 23.0753C65.5881 22.6996 66.0461 22.4684 66.5372 22.4283C67.6274 22.4283 68.4005 23.2506 68.4005 24.4002L68.3959 24.3932ZM65.8211 24.0233H67.2237C67.2005 23.8535 67.1183 23.6982 66.9924 23.5863C66.8665 23.4745 66.7055 23.4138 66.5395 23.4155C66.3679 23.408 66.1996 23.4657 66.0664 23.5777C65.9332 23.6897 65.8443 23.8482 65.8165 24.0233H65.8211Z" fill="black"/>
<path d="M68.7017 25.8652L69.2695 25.036C69.3972 25.1725 69.5498 25.2816 69.7185 25.3568C69.8872 25.4321 70.0687 25.4719 70.2525 25.4742C70.4692 25.4742 70.5877 25.3988 70.5877 25.2598C70.5877 25.1585 70.4737 25.0784 70.013 24.9299C69.3881 24.7297 68.8431 24.4046 68.8431 23.6413C68.8431 22.878 69.4588 22.4209 70.2479 22.4209C70.7584 22.4113 71.2564 22.5845 71.6574 22.9109L71.0895 23.7944C70.8673 23.5549 70.5661 23.4103 70.2456 23.3892C70.1407 23.3892 69.9788 23.4316 69.9788 23.5871C69.9788 23.6837 70.1179 23.7803 70.4691 23.9122C71.2947 24.2208 71.744 24.4211 71.7463 25.1891C71.7463 25.9077 71.2605 26.4401 70.2411 26.4401C69.6768 26.4519 69.1283 26.247 68.7017 25.8652V25.8652Z" fill="black"/>
<path d="M72.0449 25.8652L72.6128 25.036C72.7405 25.1724 72.8931 25.2814 73.0618 25.3566C73.2305 25.4319 73.412 25.4718 73.5958 25.4742C73.8238 25.4742 73.9333 25.3988 73.9333 25.2598C73.9333 25.1585 73.817 25.0784 73.3563 24.9299C72.7314 24.7297 72.1863 24.4046 72.1863 23.6413C72.1863 22.878 72.8021 22.4209 73.5912 22.4209C74.1017 22.4113 74.5996 22.5845 75.0006 22.9109L74.4327 23.7944C74.2105 23.5549 73.9094 23.4103 73.5889 23.3892C73.484 23.3892 73.3221 23.4316 73.3221 23.5871C73.3221 23.6837 73.4612 23.7803 73.8124 23.9122C74.638 24.2208 75.0873 24.4211 75.0918 25.1891C75.0918 25.9077 74.6061 26.4401 73.5843 26.4401C73.02 26.4519 72.4715 26.247 72.0449 25.8652V25.8652Z" fill="black"/>
<path d="M80.7435 25.3588H78.8346L78.5199 26.3624H77.1812L79.1744 20.7435H80.4014L82.4015 26.3624H81.0628L80.7435 25.3588ZM80.3923 24.2397L79.7947 22.355H79.7788L79.1858 24.2397H80.3923Z" fill="black"/>
<path d="M86.5521 22.4938V25.8651C86.5521 27.1232 86.0481 28.0114 84.5337 28.0114C83.9963 28.0331 83.4631 27.9054 82.9897 27.6415L83.2589 26.6426C83.605 26.8531 83.9976 26.9682 84.3992 26.9771C85.0469 26.9771 85.3798 26.6449 85.3798 26.2444V25.8651H85.3593C85.226 26.0066 85.0652 26.1172 84.8876 26.1899C84.7099 26.2626 84.5194 26.2956 84.3285 26.2868C83.3204 26.2868 82.6021 25.4858 82.6021 24.4021C82.6021 23.2595 83.3159 22.4326 84.2646 22.4326C84.4629 22.4283 84.6599 22.4665 84.8432 22.5448C85.0265 22.623 85.1921 22.7396 85.3297 22.8873H85.3502V22.5056L86.5521 22.4938ZM84.6113 25.1866C84.7707 25.1876 84.9268 25.1396 85.0598 25.0488C85.1928 24.958 85.2967 24.8284 85.3583 24.6765C85.4199 24.5246 85.4365 24.3573 85.406 24.1957C85.3754 24.034 85.2991 23.8854 85.1867 23.7686C85.0743 23.6518 84.9309 23.5722 84.7746 23.5397C84.6183 23.5072 84.4562 23.5234 84.3088 23.5862C84.1614 23.649 84.0354 23.7556 83.9468 23.8925C83.8581 24.0293 83.8108 24.1903 83.8108 24.355C83.8066 24.4649 83.8245 24.5746 83.8632 24.6771C83.9019 24.7796 83.9606 24.8728 84.0357 24.9508C84.1108 25.0289 84.2007 25.0901 84.2997 25.1307C84.3988 25.1712 84.5048 25.1903 84.6113 25.1866V25.1866Z" fill="black"/>
<path d="M90.9036 24.3932C90.9004 24.5162 90.8905 24.6389 90.874 24.7607H88.3242C88.37 24.9635 88.4848 25.1426 88.6476 25.2654C88.8104 25.3882 89.0105 25.4465 89.2114 25.4298C89.388 25.4271 89.5617 25.3834 89.7196 25.3018C89.8776 25.2202 90.0157 25.1029 90.1237 24.9586L90.76 25.696C90.5532 25.9412 90.2954 26.1349 90.0059 26.2626C89.7164 26.3903 89.4027 26.4487 89.0882 26.4334C88.5964 26.405 88.1333 26.1847 87.7927 25.817C87.4521 25.4494 87.2593 24.9618 87.2536 24.4529C87.2478 23.944 87.4293 23.4519 87.7615 23.076C88.0936 22.7001 88.5515 22.4686 89.0426 22.4283C90.1351 22.4283 90.9082 23.2506 90.9082 24.4002L90.9036 24.3932ZM88.3288 24.0233H89.7314C89.7082 23.8535 89.6259 23.6982 89.5 23.5863C89.3742 23.4745 89.2132 23.4138 89.0472 23.4155C88.8763 23.4086 88.7088 23.4667 88.5764 23.5787C88.4441 23.6906 88.356 23.8488 88.3288 24.0233V24.0233Z" fill="black"/>
<path d="M93.8362 22.4205C94.6184 22.4205 95.1772 22.821 95.1772 24.0414V26.362H93.9821V24.3477C93.9821 23.7092 93.7837 23.5255 93.3846 23.5255C92.9855 23.5255 92.7004 23.8176 92.7004 24.4207V26.362H91.5054V22.4936H92.7004V22.9647C92.8404 22.7937 93.0151 22.6566 93.2122 22.5634C93.4093 22.4701 93.6239 22.423 93.8407 22.4252L93.8362 22.4205Z" fill="black"/>
<path d="M97.6881 26.4401C97.4303 26.4504 97.1732 26.4055 96.9329 26.3083C96.6927 26.211 96.4745 26.0635 96.2921 25.8751C96.1096 25.6866 95.9668 25.4612 95.8727 25.213C95.7786 24.9648 95.7351 24.6992 95.745 24.4329C95.745 23.2385 96.5729 22.421 97.7474 22.421C98.0563 22.4146 98.3627 22.4808 98.6432 22.6147C98.9237 22.7486 99.1711 22.9466 99.3667 23.1937L98.5662 23.9005C98.4741 23.7805 98.3564 23.6842 98.2222 23.6192C98.0881 23.5542 97.9412 23.5223 97.793 23.5259C97.6792 23.5213 97.5657 23.5415 97.4599 23.5853C97.3541 23.629 97.2584 23.6952 97.179 23.7797C97.0997 23.8641 97.0384 23.9649 96.9992 24.0754C96.96 24.1859 96.9437 24.3037 96.9515 24.4211C96.9434 24.5405 96.9597 24.6603 96.9993 24.7727C97.0389 24.8852 97.1009 24.9878 97.1813 25.074C97.2617 25.1601 97.3587 25.2279 97.466 25.2729C97.5734 25.3179 97.6886 25.3391 97.8044 25.3352C97.9484 25.3372 98.0911 25.3068 98.2226 25.2462C98.3542 25.1856 98.4714 25.0962 98.5662 24.9842L99.3849 25.7216C99.1698 25.9618 98.9066 26.1507 98.6135 26.2748C98.3204 26.3989 98.0045 26.4553 97.6881 26.4401V26.4401Z" fill="black"/>
<path d="M103.518 22.4948L101.549 27.9275H100.366L101.009 26.1016L99.5493 22.4948H100.781L101.543 24.5915H101.561L102.279 22.4948H103.518Z" fill="black"/>
</g>
<defs>
<clipPath id="clip0_666_14825">
<rect width="105" height="28" fill="white"/>
</clipPath>
</defs>
</svg>
